<?xml version="1.0" encoding="UTF-8"?>
<!DOCTYPE svg PUBLIC "-//W3C//DTD SVG 1.1//EN" "http://www.w3.org/Graphics/SVG/1.1/DTD/svg11.dtd">
<!-- Creator: CorelDRAW -->
<svg xmlns="http://www.w3.org/2000/svg" xml:space="preserve" width="21.626mm" height="21.626mm" version="1.1" style="shape-rendering:geometricPrecision; text-rendering:geometricPrecision; image-rendering:optimizeQuality; fill-rule:evenodd; clip-rule:evenodd"
viewBox="0 0 68.86 68.86"
 xmlns:xlink="http://www.w3.org/1999/xlink"
 xmlns:xodm="http://www.corel.com/coreldraw/odm/2003">
 <defs>
  <style type="text/css">
   <![CDATA[
    .fil4 {fill:none}
    .fil1 {fill:#235383}
    .fil3 {fill:red}
    .fil0 {fill:white}
    .fil2 {fill:#235383;fill-rule:nonzero}
   ]]>
  </style>
   <clipPath id="id0">
    <path d="M-0 0l68.86 0 0 68.86 -68.86 0 0 -68.86z"/>
   </clipPath>
 </defs>
 <g id="Layer_x0020_1">
  <metadata id="CorelCorpID_0Corel-Layer"/>
  <polygon class="fil0" points="-0,0 68.86,0 68.86,68.86 -0,68.86 "/>
  <g style="clip-path:url(#id0)">
   <g id="_3104997469520">
    <g>
     <path id="_1" class="fil1" d="M35.41 14.63c4.05,0 7.82,1.22 10.96,3.31 -0.63,0.45 -1.15,1.06 -1.48,1.77 -2.73,-1.76 -5.99,-2.79 -9.48,-2.79 -6.75,0 -12.61,3.82 -15.53,9.42l-2.55 0c3.09,-6.9 10.02,-11.71 18.08,-11.71zm17.15 9.91c1.68,2.91 2.64,6.29 2.64,9.89 0,10.93 -8.86,19.8 -19.8,19.8 -7.85,0 -14.64,-4.57 -17.84,-11.2l2.59 0c3,5.32 8.71,8.91 15.25,8.91 9.67,0 17.5,-7.84 17.5,-17.5 0,-3.09 -0.8,-6 -2.21,-8.52 0.73,-0.29 1.37,-0.77 1.86,-1.37z"/>
     <path class="fil2" d="M15.37 36.55l5.97 0c0.3,0 0.51,-0.05 0.64,-0.16 0.13,-0.1 0.2,-0.26 0.2,-0.46 0,-0.19 -0.06,-0.34 -0.2,-0.44 -0.13,-0.1 -0.34,-0.15 -0.64,-0.15l-5.22 0 1.39 -1.86 3.87 0c0.2,0 0.38,-0.04 0.53,-0.12 0.15,-0.08 0.23,-0.24 0.23,-0.46 0,-0.22 -0.08,-0.36 -0.23,-0.44 -0.16,-0.08 -0.33,-0.12 -0.52,-0.12l-7.29 0 1.73 -2.27 5.44 0c0.52,0 0.99,0.05 1.41,0.15 0.42,0.1 0.78,0.25 1.08,0.46 0.3,0.2 0.53,0.46 0.69,0.76 0.16,0.3 0.24,0.65 0.24,1.05 0,0.26 -0.03,0.49 -0.1,0.69 -0.07,0.2 -0.16,0.38 -0.27,0.53 -0.11,0.15 -0.23,0.28 -0.38,0.38 -0.14,0.1 -0.29,0.18 -0.44,0.23 0.38,0.11 0.71,0.33 0.97,0.66 0.26,0.33 0.4,0.76 0.4,1.28 0,0.36 -0.06,0.7 -0.17,1.01 -0.11,0.31 -0.3,0.58 -0.57,0.8 -0.27,0.23 -0.63,0.4 -1.09,0.53 -0.46,0.13 -1.03,0.2 -1.71,0.2l-7.67 0 1.72 -2.24zm15.7 -4.21c-0.54,0 -1.01,0.11 -1.42,0.33 -0.41,0.22 -0.71,0.51 -0.91,0.89l5.51 0c0.99,0 1.78,0.2 2.37,0.61 0.59,0.41 0.89,1.01 0.89,1.8 0,0.6 -0.15,1.09 -0.46,1.48 -0.3,0.39 -0.71,0.69 -1.21,0.91 -0.5,0.22 -1.08,0.37 -1.74,0.46 -0.66,0.08 -1.34,0.12 -2.04,0.12 -2.01,0 -3.53,-0.37 -4.56,-1.1 -1.03,-0.73 -1.55,-1.9 -1.55,-3.48 0,-0.63 0.13,-1.21 0.4,-1.74 0.26,-0.53 0.63,-0.98 1.09,-1.35 0.46,-0.38 1.02,-0.67 1.66,-0.87 0.64,-0.2 1.34,-0.31 2.1,-0.31l5.61 0 -1.73 2.27 -4.01 0zm-2.33 2.94c0.08,0.29 0.21,0.52 0.39,0.7 0.18,0.18 0.42,0.32 0.7,0.42 0.29,0.1 0.63,0.17 1.02,0.2 0.4,0.03 0.85,0.05 1.36,0.05 0.56,0 1.01,-0.02 1.37,-0.05 0.36,-0.03 0.64,-0.08 0.84,-0.15 0.2,-0.06 0.34,-0.15 0.42,-0.25 0.08,-0.1 0.12,-0.21 0.12,-0.33 0,-0.4 -0.31,-0.6 -0.92,-0.6l-5.3 0zm15.42 -5.35c1.85,0 3.24,0.36 4.17,1.08 0.93,0.72 1.39,1.86 1.39,3.41 0,1.56 -0.46,2.7 -1.39,3.43 -0.92,0.72 -2.32,1.08 -4.17,1.08 -1.86,0 -3.25,-0.36 -4.17,-1.08 -0.92,-0.72 -1.39,-1.86 -1.39,-3.43 0,-1.55 0.46,-2.69 1.39,-3.41 0.93,-0.72 2.32,-1.08 4.17,-1.08zm0 6.73c0.53,0 0.98,-0.03 1.35,-0.08 0.37,-0.06 0.67,-0.17 0.9,-0.33 0.23,-0.16 0.39,-0.39 0.5,-0.68 0.1,-0.29 0.16,-0.67 0.16,-1.14 0,-0.47 -0.05,-0.85 -0.16,-1.14 -0.1,-0.29 -0.27,-0.52 -0.5,-0.68 -0.23,-0.16 -0.53,-0.27 -0.9,-0.33 -0.37,-0.06 -0.82,-0.08 -1.35,-0.08 -0.54,0 -0.99,0.03 -1.36,0.08 -0.37,0.06 -0.67,0.16 -0.89,0.33 -0.23,0.16 -0.39,0.39 -0.49,0.68 -0.1,0.29 -0.16,0.67 -0.16,1.14 0,0.47 0.05,0.85 0.16,1.14 0.1,0.29 0.27,0.52 0.49,0.68 0.23,0.16 0.52,0.28 0.89,0.33 0.37,0.06 0.82,0.08 1.36,0.08z"/>
     <path class="fil3" d="M48.82 18.96c1.49,0 2.7,1.21 2.7,2.7 0,1.49 -1.21,2.7 -2.7,2.7 -1.49,0 -2.7,-1.21 -2.7,-2.7 0,-1.49 1.21,-2.7 2.7,-2.7z"/>
    </g>
   </g>
  </g>
  <polygon class="fil4" points="-0,0 68.86,0 68.86,68.86 -0,68.86 "/>
 </g>
</svg>
