<?xml version="1.0" encoding="UTF-8"?>
<!DOCTYPE svg PUBLIC "-//W3C//DTD SVG 1.1//EN" "http://www.w3.org/Graphics/SVG/1.1/DTD/svg11.dtd">
<!-- Creator: CorelDRAW -->
<svg xmlns="http://www.w3.org/2000/svg" xml:space="preserve" width="7.228mm" height="7.2708mm" version="1.1" style="shape-rendering:geometricPrecision; text-rendering:geometricPrecision; image-rendering:optimizeQuality; fill-rule:evenodd; clip-rule:evenodd"
viewBox="0 0 724.64 728.94"
 xmlns:xlink="http://www.w3.org/1999/xlink"
 xmlns:xodm="http://www.corel.com/coreldraw/odm/2003">
 <defs>
  <style type="text/css">
   <![CDATA[
    .fil0 {fill:#4898E8}
   ]]>
  </style>
 </defs>
 <g id="Layer_x0020_1">
  <metadata id="CorelCorpID_0Corel-Layer"/>
  <g id="_3104710657920">
   <path class="fil0" d="M402.1 305.33l0 -62.35 -146.21 0 0 485.96 146.21 0 0 -234.39c0,-67.24 18.16,-131.15 92.46,-131.15 72.19,0 81.71,59.42 81.71,131.15l0 234.39 148.38 0 0 -290.29c0,-111.61 -40.78,-204.27 -163.43,-204.27 -52.48,0 -96.18,4.46 -134.93,43.54l-24.18 27.41z"/>
   <polygon class="fil0" points="10.76,728.94 161.27,728.94 161.27,242.98 10.76,242.98 "/>
   <path class="fil0" d="M-0 81.71l0 12.9c0,40.9 40.8,81.71 81.71,81.71l12.91 0c40.9,0 81.71,-40.8 81.71,-81.71l0 -12.9c0,-40.91 -40.8,-81.71 -81.71,-81.71l-12.91 0c-40.9,0 -81.71,40.79 -81.71,81.71z"/>
  </g>
 </g>
</svg>
