<?xml version="1.0" encoding="UTF-8"?>
<!DOCTYPE svg PUBLIC "-//W3C//DTD SVG 1.1//EN" "http://www.w3.org/Graphics/SVG/1.1/DTD/svg11.dtd">
<!-- Creator: CorelDRAW -->
<svg xmlns="http://www.w3.org/2000/svg" xml:space="preserve" width="7.241mm" height="7.2708mm" version="1.1" style="shape-rendering:geometricPrecision; text-rendering:geometricPrecision; image-rendering:optimizeQuality; fill-rule:evenodd; clip-rule:evenodd"
viewBox="0 0 72.66 72.96"
 xmlns:xlink="http://www.w3.org/1999/xlink"
 xmlns:xodm="http://www.corel.com/coreldraw/odm/2003">
 <defs>
  <style type="text/css">
   <![CDATA[
    .fil0 {fill:#4898E8}
   ]]>
  </style>
 </defs>
 <g id="Layer_x0020_1">
  <metadata id="CorelCorpID_0Corel-Layer"/>
  <path class="fil0" d="M6.57 36.44c0,-11.49 6.41,-21.73 16.3,-26.78 15.24,-7.79 34.11,-1.16 41.02,14.37 6.5,14.6 0.29,31.84 -13.75,38.82 -9.1,4.53 -19.41,4.31 -28.24,-0.49 -2.86,-1.56 -1.74,-0.93 -6.05,0.16 -1.21,0.3 -2.01,0.49 -3.22,0.8 -1.4,0.36 -2.2,0.77 -3.5,0.88 0.16,-1.93 1.27,-5.23 1.78,-6.98 0.22,-0.76 0.85,-2.62 0.91,-3.42 0.12,-1.68 -5.25,-7.1 -5.25,-17.35zm11.68 -9.49c0,7.05 2.29,9.06 6.57,14.61 3.95,5.11 13.88,12.05 19.72,12.05 3.64,0 5.09,0.2 8.26,-2.33 1,-0.8 4.22,-5.85 0.74,-7.4 -1.2,-0.53 -1.75,-0.7 -2.79,-1.22 -1.49,-0.75 -3.53,-2.03 -5.47,-2.19 -0.48,0.72 -3.34,4.75 -4.02,4.75 -4.12,0 -13.51,-8.48 -13.51,-11.68 0,-1.14 2.92,-3.12 2.92,-4.75l-3.14 -7.82c-1.08,-1.94 -4.45,-2.46 -7.02,0.58 -1.06,1.26 -2.26,3.23 -2.26,5.41zm-17.89 7.67c0,14.64 5.01,17.96 4.56,20.59 -0.22,1.29 -0.89,3.1 -1.2,4.31l-3.73 13.43c3,-0.07 15.84,-4.27 18.41,-4.62 1.52,-0.21 2.67,0.78 3.91,1.29 26.42,10.85 50.34,-10.75 50.34,-30.99 0,-7.12 -0.29,-12.1 -3.64,-18.63 -1.72,-3.35 -4.13,-6.6 -6.8,-9.27l-5.57 -4.65c-15.84,-11.01 -38.54,-6.49 -49.34,8.82 -3.68,5.21 -6.94,12.61 -6.94,19.71z"/>
 </g>
</svg>
