<svg xmlns="http://www.w3.org/2000/svg" xmlns:xlink="http://www.w3.org/1999/xlink" width="1080" viewBox="0 0 810 265.499997" height="354" preserveAspectRatio="xMidYMid meet"><path fill="#fafafa" d="M 757.332031 261.050781 L 765.109375 201.707031 L 798.414062 201.707031 L 797.371094 210.097656 L 773.265625 210.097656 L 771.363281 225.035156 L 795.382812 225.035156 L 794.292969 233.339844 L 770.1875 233.339844 L 767.738281 252.515625 L 791.8125 252.515625 L 790.636719 261.066406 L 757.332031 261.066406 Z M 700.027344 228.09375 L 701.894531 228.09375 C 707.734375 228.09375 711.722656 227.351562 713.824219 225.910156 C 715.925781 224.4375 717 221.925781 717 218.351562 C 717 215.324219 716.105469 213.191406 714.335938 211.980469 C 712.566406 210.757812 709.109375 210.144531 703.980469 210.144531 L 702.472656 210.144531 Z M 695.722656 261.050781 L 686.507812 261.050781 L 694.300781 201.707031 L 705.003906 201.707031 C 709.738281 201.707031 713.128906 201.988281 715.214844 202.535156 C 717.296875 203.066406 719.132812 203.976562 720.773438 205.28125 C 722.574219 206.703125 723.964844 208.457031 724.925781 210.558594 C 725.882812 212.675781 726.363281 215.007812 726.363281 217.574219 C 726.363281 222.46875 725.023438 226.457031 722.359375 229.535156 C 719.679688 232.628906 715.90625 234.5625 711.027344 235.359375 L 727.421875 261.066406 L 717 261.066406 L 701.300781 235.671875 L 699.148438 235.671875 Z M 624.585938 239.148438 L 641.941406 239.148438 L 637.375 224.457031 C 637.144531 223.761719 636.945312 222.835938 636.679688 221.660156 C 636.429688 220.503906 636.132812 218.980469 635.785156 217.09375 C 635.191406 218.5 634.59375 219.824219 634.015625 221.082031 C 633.4375 222.339844 632.875 223.511719 632.3125 224.636719 Z M 602.929688 261.050781 L 637.273438 199.390625 L 658.949219 261.050781 L 649.320312 261.050781 L 644.488281 247.039062 L 620.863281 247.039062 L 613.039062 261.050781 Z M 581.523438 205.578125 L 580.015625 215.722656 C 577.71875 213.320312 575.21875 211.535156 572.523438 210.359375 C 569.824219 209.1875 566.914062 208.589844 563.738281 208.589844 C 560.496094 208.589844 557.5 209.152344 554.722656 210.277344 C 551.941406 211.402344 549.59375 213.007812 547.625 215.125 C 545.339844 217.574219 543.554688 220.402344 542.328125 223.613281 C 541.089844 226.820312 540.492188 230.128906 540.492188 233.570312 C 540.492188 239.675781 542.363281 244.65625 546.117188 248.492188 C 549.859375 252.332031 554.703125 254.269531 560.660156 254.269531 C 563.621094 254.269531 566.5 253.753906 569.230469 252.710938 C 571.992188 251.6875 574.640625 250.164062 577.1875 248.113281 L 575.136719 259.480469 C 572.421875 260.539062 569.824219 261.316406 567.34375 261.84375 C 564.863281 262.359375 562.464844 262.621094 560.179688 262.621094 C 551.546875 262.621094 544.546875 259.992188 539.253906 254.699219 C 533.941406 249.421875 531.277344 242.488281 531.277344 233.902344 C 531.277344 229.136719 532.121094 224.621094 533.808594 220.335938 C 535.515625 216.050781 537.914062 212.363281 541.007812 209.253906 C 543.902344 206.355469 547.210938 204.15625 550.949219 202.632812 C 554.671875 201.128906 558.675781 200.367188 562.945312 200.367188 C 566.78125 200.367188 570.238281 200.796875 573.300781 201.660156 C 576.378906 202.535156 579.105469 203.84375 581.523438 205.578125 Z M 442.140625 261.050781 L 449.898438 201.707031 L 459.230469 201.707031 L 452.664062 251.917969 L 474.816406 251.917969 L 473.558594 261.050781 Z M 380.21875 239.148438 L 397.570312 239.148438 L 393.003906 224.457031 C 392.773438 223.761719 392.558594 222.835938 392.308594 221.660156 C 392.0625 220.503906 391.78125 218.980469 391.433594 217.09375 C 390.839844 218.5 390.242188 219.824219 389.664062 221.082031 C 389.085938 222.339844 388.503906 223.511719 387.941406 224.636719 Z M 358.542969 261.050781 L 392.890625 199.390625 L 414.578125 261.050781 L 404.933594 261.050781 L 400.101562 247.039062 L 376.476562 247.039062 L 368.652344 261.050781 Z M 308.582031 261.050781 L 315.300781 210.261719 L 299.285156 210.261719 L 300.425781 201.707031 L 340.957031 201.707031 L 339.800781 210.261719 L 324.679688 210.261719 L 317.945312 261.050781 Z M 208.921875 261.050781 L 216.945312 199.390625 L 249.355469 236.484375 C 250.511719 237.855469 251.589844 239.128906 252.515625 240.355469 C 253.457031 241.5625 254.351562 242.753906 255.160156 243.945312 C 255.160156 242.71875 255.210938 241.398438 255.34375 239.992188 C 255.460938 238.601562 255.660156 236.847656 255.921875 234.746094 L 260.390625 201.707031 L 269.09375 201.707031 L 261.066406 263.382812 L 228.574219 226.277344 C 227.105469 224.605469 225.945312 223.183594 225.070312 222.039062 C 224.191406 220.898438 223.429688 219.789062 222.785156 218.75 C 222.734375 220.585938 222.453125 223.398438 221.976562 227.167969 C 221.925781 227.550781 221.875 227.832031 221.859375 228.011719 L 217.625 261.050781 Z M 139.273438 261.050781 L 147.046875 201.707031 L 180.351562 201.707031 L 179.292969 210.097656 L 155.203125 210.097656 L 153.300781 225.035156 L 177.308594 225.035156 L 176.214844 233.339844 L 152.109375 233.339844 L 149.644531 252.515625 L 173.734375 252.515625 L 172.558594 261.066406 L 139.273438 261.066406 Z M 54.519531 261.050781 L 62.292969 201.707031 L 74.898438 201.707031 C 81.46875 201.707031 86.316406 202.121094 89.492188 202.949219 C 92.667969 203.777344 95.53125 205.164062 98.078125 207.101562 C 101.269531 209.535156 103.71875 212.675781 105.421875 216.480469 C 107.128906 220.320312 107.972656 224.605469 107.972656 229.351562 C 107.972656 233.539062 107.308594 237.542969 105.96875 241.363281 C 104.628906 245.167969 102.710938 248.496094 100.246094 251.324219 C 98.492188 253.359375 96.507812 255.0625 94.304688 256.453125 C 92.089844 257.839844 89.691406 258.898438 87.109375 259.628906 C 85.390625 260.125 83.535156 260.472656 81.566406 260.703125 C 79.597656 260.933594 77.167969 261.050781 74.253906 261.050781 Z M 64.875 252.582031 L 68.28125 252.582031 C 74.964844 252.582031 79.699219 252.28125 82.476562 251.652344 C 85.257812 251.023438 87.671875 249.984375 89.707031 248.527344 C 92.4375 246.558594 94.554688 243.929688 96.078125 240.621094 C 97.582031 237.328125 98.359375 233.71875 98.359375 229.765625 C 98.359375 226.359375 97.746094 223.28125 96.523438 220.585938 C 95.296875 217.855469 93.5625 215.636719 91.296875 213.917969 C 89.542969 212.5625 87.539062 211.601562 85.324219 211.039062 C 83.105469 210.476562 79.484375 210.179688 74.4375 210.179688 L 70.449219 210.179688 Z M 64.875 252.582031 " fill-opacity="1" fill-rule="nonzero"></path><path fill="#abcc5e" d="M 70.914062 171.464844 L 70.914062 41.878906 L 3.664062 41.878906 L 3.664062 11.058594 L 174.164062 11.058594 L 174.164062 41.878906 L 106.894531 41.878906 L 106.894531 171.464844 Z M 70.914062 171.464844 " fill-opacity="1" fill-rule="nonzero"></path><path fill="#abcc5e" d="M 204.738281 36.699219 C 200.351562 36.699219 197.242188 35.824219 195.457031 34.101562 C 193.636719 32.382812 192.742188 29.652344 192.742188 25.878906 L 192.742188 12.25 C 192.742188 8.476562 193.636719 5.78125 195.457031 4.140625 C 197.257812 2.488281 200.351562 1.675781 204.738281 1.675781 L 216.25 1.675781 C 220.800781 1.675781 223.976562 2.488281 225.78125 4.140625 C 227.582031 5.78125 228.476562 8.476562 228.476562 12.25 L 228.476562 25.878906 C 228.476562 29.652344 227.566406 32.398438 225.78125 34.101562 C 223.976562 35.839844 220.816406 36.699219 216.25 36.699219 Z M 192.726562 47.269531 L 228.476562 47.269531 L 228.476562 171.449219 L 192.726562 171.449219 Z M 192.726562 47.269531 " fill-opacity="1" fill-rule="nonzero"></path><path fill="#abcc5e" d="M 387.710938 100.425781 C 387.710938 94.933594 387.3125 90.484375 386.519531 87.027344 C 385.742188 83.585938 384.335938 80.90625 382.285156 79.035156 C 380.25 77.148438 377.421875 75.84375 373.8125 75.148438 C 370.207031 74.453125 365.675781 74.089844 360.183594 74.089844 L 290.566406 74.089844 L 290.566406 115.714844 C 290.566406 120.890625 290.960938 125.175781 291.742188 128.550781 C 292.535156 131.925781 293.941406 134.589844 295.992188 136.542969 C 298.011719 138.496094 300.804688 139.867188 304.332031 140.660156 C 307.855469 141.457031 312.371094 141.851562 317.863281 141.851562 L 360.199219 141.851562 C 365.691406 141.851562 370.222656 141.457031 373.832031 140.660156 C 377.4375 139.867188 380.265625 138.511719 382.300781 136.542969 C 384.351562 134.589844 385.742188 131.925781 386.535156 128.550781 C 387.332031 125.175781 387.726562 120.824219 387.726562 115.5 L 387.726562 100.425781 Z M 316.671875 171.464844 C 304.910156 171.464844 295.117188 170.472656 287.289062 168.519531 C 279.449219 166.570312 273.179688 163.425781 268.480469 159.125 C 263.78125 154.804688 260.441406 149.164062 258.488281 142.183594 C 256.535156 135.203125 255.542969 126.632812 255.542969 116.441406 L 255.542969 2.851562 L 290.582031 2.851562 L 290.582031 44.011719 L 361.375 44.011719 C 373.285156 44.011719 383.160156 44.988281 391.003906 46.957031 C 398.84375 48.910156 405.117188 52.035156 409.8125 56.355469 C 414.511719 60.671875 417.835938 66.347656 419.804688 73.410156 C 421.757812 80.457031 422.734375 89.078125 422.734375 99.269531 L 422.734375 116.441406 C 422.734375 126.632812 421.757812 135.21875 419.804688 142.183594 C 417.835938 149.164062 414.511719 154.804688 409.8125 159.125 C 405.117188 163.425781 398.84375 166.570312 391.003906 168.519531 C 383.160156 170.472656 373.285156 171.464844 361.375 171.464844 Z M 316.671875 171.464844 " fill-opacity="1" fill-rule="nonzero"></path><path fill="#abcc5e" d="M 579.140625 81.617188 C 579.140625 77.382812 578.082031 74.550781 575.964844 73.144531 C 573.847656 71.722656 570.125 71.027344 564.796875 71.027344 L 506.480469 71.027344 C 502.078125 71.027344 498.390625 71.226562 495.429688 71.609375 C 492.449219 71.988281 490.050781 72.898438 488.25 74.304688 C 486.445312 75.726562 485.15625 77.761719 484.359375 80.425781 C 483.582031 83.089844 483.1875 86.695312 483.1875 91.261719 L 483.1875 98.078125 L 579.140625 98.078125 Z M 483.1875 120.660156 L 483.1875 126.550781 C 483.1875 130.46875 483.5 133.613281 484.128906 135.945312 C 484.757812 138.296875 485.882812 140.148438 487.535156 141.472656 C 489.191406 142.796875 491.375 143.707031 494.121094 144.167969 C 496.867188 144.648438 500.277344 144.878906 504.34375 144.878906 L 532.320312 144.878906 L 532.320312 144.863281 L 608.308594 144.863281 L 608.308594 171.449219 L 504.34375 171.449219 C 484.128906 171.449219 469.703125 167.609375 461.066406 159.917969 C 452.449219 152.242188 448.128906 139.933594 448.128906 122.992188 L 448.128906 93.59375 C 448.128906 84.347656 449.023438 76.554688 450.824219 70.199219 C 452.644531 63.863281 455.773438 58.753906 460.238281 54.914062 C 464.707031 51.078125 470.628906 48.296875 477.992188 46.578125 C 485.351562 44.839844 494.683594 43.996094 505.984375 43.996094 L 567.59375 43.996094 C 576.691406 43.996094 584.253906 44.855469 590.289062 46.578125 C 596.328125 48.3125 601.109375 50.695312 604.632812 53.757812 C 608.15625 56.816406 610.640625 60.507812 612.046875 64.808594 C 613.453125 69.109375 614.164062 73.792969 614.164062 78.804688 L 614.164062 120.660156 Z M 483.1875 120.660156 " fill-opacity="1" fill-rule="nonzero"></path><path fill="#abcc5e" d="M 673.191406 115.480469 C 673.191406 121.125 673.636719 125.671875 674.5 129.128906 C 675.359375 132.570312 676.964844 135.25 679.3125 137.121094 C 681.679688 139.007812 684.839844 140.265625 688.84375 140.894531 C 692.847656 141.523438 697.972656 141.835938 704.246094 141.835938 L 743.289062 141.835938 C 748.78125 141.835938 753.296875 141.472656 756.804688 140.777344 C 760.328125 140.066406 763.125 138.726562 765.160156 136.773438 C 767.195312 134.820312 768.601562 132.140625 769.394531 128.78125 C 770.1875 125.40625 770.570312 121.074219 770.570312 115.730469 L 770.570312 74.105469 L 704.03125 74.105469 C 697.910156 74.105469 692.863281 74.417969 688.859375 75.046875 C 684.855469 75.675781 681.679688 76.917969 679.328125 78.804688 C 676.996094 80.691406 675.375 83.351562 674.515625 86.792969 C 673.65625 90.234375 673.207031 94.785156 673.207031 100.425781 L 673.207031 115.480469 Z M 699.792969 171.464844 C 687.882812 171.464844 677.957031 170.472656 670.03125 168.519531 C 662.125 166.570312 655.804688 163.425781 651.105469 159.125 C 646.40625 154.804688 643.082031 149.164062 641.113281 142.183594 C 639.144531 135.203125 638.167969 126.632812 638.167969 116.441406 L 638.167969 99.269531 C 638.167969 89.078125 639.144531 80.457031 641.113281 73.410156 C 643.066406 66.347656 646.390625 60.671875 651.105469 56.355469 C 655.804688 52.035156 662.125 48.910156 670.03125 46.957031 C 677.941406 44.988281 687.882812 44.011719 699.792969 44.011719 L 770.570312 44.011719 L 770.570312 2.851562 L 805.609375 2.851562 L 805.609375 116.441406 C 805.609375 126.632812 804.632812 135.21875 802.664062 142.183594 C 800.710938 149.164062 797.371094 154.804688 792.671875 159.125 C 787.972656 163.425781 781.703125 166.570312 773.859375 168.519531 C 766.019531 170.472656 756.144531 171.464844 744.230469 171.464844 Z M 699.792969 171.464844 " fill-opacity="1" fill-rule="nonzero"></path></svg>