<?xml version="1.0" encoding="UTF-8"?>
<!DOCTYPE svg PUBLIC "-//W3C//DTD SVG 1.1//EN" "http://www.w3.org/Graphics/SVG/1.1/DTD/svg11.dtd">
<!-- Creator: CorelDRAW -->
<svg xmlns="http://www.w3.org/2000/svg" xml:space="preserve" width="7.4771mm" height="7.4771mm" version="1.1" style="shape-rendering:geometricPrecision; text-rendering:geometricPrecision; image-rendering:optimizeQuality; fill-rule:evenodd; clip-rule:evenodd"
viewBox="0 0 45.54 45.54"
 xmlns:xlink="http://www.w3.org/1999/xlink"
 xmlns:xodm="http://www.corel.com/coreldraw/odm/2003">
 <defs>
  <style type="text/css">
   <![CDATA[
    .fil0 {fill:#4898E8}
   ]]>
  </style>
 </defs>
 <g id="Layer_x0020_1">
  <metadata id="CorelCorpID_0Corel-Layer"/>
  <path class="fil0" d="M6.92 0l31.7 0c3.81,0 6.92,3.11 6.92,6.92l0 31.7c0,3.81 -3.11,6.92 -6.92,6.92l-9.41 0 0 -17c0,-0.22 0.07,-0.29 0.29,-0.29l5.06 0 0.76 -6.01 -4.87 0c-0.48,0 -1.24,0.15 -1.24,-0.29 0,-6.92 -0.27,-6.68 6.3,-6.68l0 -5.35 -3.53 -0.29c-3.81,-0.21 -6.93,1.05 -8.33,4.36 -0.92,2.18 -0.64,5.62 -0.64,8.24l-5.25 0 0 6.01 4.96 0c0.22,0 0.29,0.07 0.29,0.29l0 17 -16.09 0c-3.81,0 -6.92,-3.11 -6.92,-6.92l0 -31.7c0,-3.81 3.11,-6.92 6.92,-6.92z"/>
 </g>
</svg>
