<?xml version="1.0" encoding="UTF-8"?>
<!DOCTYPE svg PUBLIC "-//W3C//DTD SVG 1.1//EN" "http://www.w3.org/Graphics/SVG/1.1/DTD/svg11.dtd">
<!-- Creator: CorelDRAW -->
<svg xmlns="http://www.w3.org/2000/svg" xml:space="preserve" width="7.2566mm" height="7.2708mm" version="1.1" style="shape-rendering:geometricPrecision; text-rendering:geometricPrecision; image-rendering:optimizeQuality; fill-rule:evenodd; clip-rule:evenodd"
viewBox="0 0 27.76 27.82"
 xmlns:xlink="http://www.w3.org/1999/xlink"
 xmlns:xodm="http://www.corel.com/coreldraw/odm/2003">
 <defs>
  <style type="text/css">
   <![CDATA[
    .fil0 {fill:#4898E8}
   ]]>
  </style>
 </defs>
 <g id="Layer_x0020_1">
  <metadata id="CorelCorpID_0Corel-Layer"/>
  <g id="_3104708315760">
   <path class="fil0" d="M14.23 25.32c-0.78,0 -2.41,0.06 -2.98,-0.01 -0.71,-0.08 -1.52,-0 -2.29,-0.05 -0.24,-0.01 -0.23,-0.05 -0.49,-0.06 -1.16,-0.03 -2.4,-0.15 -3.42,-0.77 -2.44,-1.49 -2.51,-4.02 -2.51,-6.89 0,-2.32 -0.15,-8.93 0.27,-10.93 0.45,-2.19 1.94,-3.44 4.17,-3.87 1.65,-0.32 8.73,-0.2 9.96,-0.2 3.77,0 7.18,0.04 8.08,4.2 0.38,1.74 0.13,3.71 0.24,4.71l0.05 4.52c-0.01,0.28 -0.06,0.33 -0.06,0.65 -0,0.47 0,0.94 0,1.41 0,0.23 0.01,0.49 0,0.71 -0.01,0.25 -0.06,0.33 -0.06,0.65 0.02,2.57 -0.98,4.45 -3.08,5.34 -1.45,0.61 -3.54,0.51 -5.13,0.53l-1.36 0.06c-0.47,0 -0.94,0 -1.41,0zm-3.99 -25.32l7.35 0c2.89,0 5.34,0.15 7.47,1.94 1.96,1.65 2.7,4.02 2.7,6.74l0 10.25c-0,2.69 -0.6,5.11 -2.67,6.92 -2.09,1.82 -4.69,1.96 -7.54,1.97l-7.28 0c-3.7,-0 -6.04,-0.4 -7.93,-2.3 -1.91,-1.92 -2.35,-4.11 -2.35,-7.86l0 -7.44c0,-3.76 0.43,-6 2.35,-7.92 2.09,-2.1 4.87,-2.29 7.89,-2.3z"/>
   <path class="fil0" d="M14.07 18.53c-1.35,0 -2.52,-0.43 -3.44,-1.34 -2.84,-2.82 -0.95,-7.89 3.33,-7.89 4.23,0 6.36,5.56 2.66,8.36 -0.63,0.48 -1.67,0.88 -2.55,0.88zm-7.33 -4.62c0,6.28 7.89,9.94 12.65,4.6 1.05,-1.18 1.7,-2.99 1.7,-4.6 0,-5.5 -6.2,-9.27 -11.26,-5.88 -1.73,1.16 -3.09,3.4 -3.09,5.88z"/>
   <path class="fil0" d="M19.67 6.3l0 0.27c0,0.83 0.75,1.58 1.58,1.58 0.6,0 0.88,-0.07 1.32,-0.53 1.47,-1.53 -0.79,-3.83 -2.34,-2.39 -0.24,0.23 -0.56,0.63 -0.56,1.07z"/>
  </g>
 </g>
</svg>
