<?xml version="1.0" encoding="UTF-8"?>
<!DOCTYPE svg PUBLIC "-//W3C//DTD SVG 1.1//EN" "http://www.w3.org/Graphics/SVG/1.1/DTD/svg11.dtd">
<!-- Creator: CorelDRAW -->
<svg xmlns="http://www.w3.org/2000/svg" xml:space="preserve" width="16.9333mm" height="16.9334mm" style="shape-rendering:geometricPrecision; text-rendering:geometricPrecision; image-rendering:optimizeQuality; fill-rule:evenodd; clip-rule:evenodd"
viewBox="0 0 2.41904 2.41906"
 xmlns:xlink="http://www.w3.org/1999/xlink">
 <defs>
  <style type="text/css">
   <![CDATA[
    .fil1 {fill:#00A259}
    .fil0 {fill:white}
   ]]>
  </style>
 </defs>
 <g id="Layer_x0020_1">
  <metadata id="CorelCorpID_0Corel-Layer"/>
  <g id="_432681392">
   <rect id="_158317784" class="fil0" width="2.41904" height="2.41904"/>
   <g>
    <path id="_443903240" class="fil1" d="M0.996972 1.68523l0.0245572 0.0146714c0.0902429,0.0537286 0.192872,0.0821715 0.296757,0.0821715 0.3206,0 0.581429,-0.260786 0.581429,-0.581386 0,-0.320557 -0.260829,-0.581386 -0.581429,-0.581386 -0.320515,0 -0.581343,0.260829 -0.581343,0.581386 0,0.105857 0.0293857,0.210072 0.0850286,0.301415l0.0150714 0.0248 -0.0581 0.216757 0.218029 -0.0584286zm-0.409672 0.250029l0.104057 -0.388229c-0.0589143,-0.106329 -0.0899144,-0.225414 -0.0899144,-0.346343 0,-0.395272 0.321615,-0.716886 0.716843,-0.716886 0.395329,-1.42857e-005 0.716929,0.321615 0.716929,0.716886 1.42857e-005,0.395315 -0.3216,0.716943 -0.716929,0.716943 -0.118643,0 -0.235843,-0.03 -0.340729,-0.0868715l-0.390257 0.1045z"/>
    <path id="_443903408" class="fil1" d="M1.59344 1.30319c-0.0304,-0.0181857 -0.0699858,-0.0385143 -0.1058,-0.0238 -0.0275,0.0112143 -0.0450715,0.0542572 -0.0628715,0.0762286 -0.00915715,0.0112857 -0.0200286,0.0130572 -0.0341,0.00738572 -0.1032,-0.0411143 -0.182286,-0.11 -0.239243,-0.204929 -0.00961429,-0.0147857 -0.00790001,-0.0263715 0.00374286,-0.0400572 0.0171857,-0.0202572 0.0388,-0.0432286 0.0434143,-0.0705715 0.00467143,-0.0272572 -0.00814286,-0.0592143 -0.0194286,-0.0835001 -0.0144143,-0.0310857 -0.0305429,-0.0753429 -0.0616143,-0.0929429 -0.0286143,-0.0161714 -0.0662858,-0.00710001 -0.0917858,0.0136572 -0.0439715,0.0358286 -0.0651858,0.0919286 -0.0645572,0.147543 0.000171429,0.0158286 0.00214286,0.0315857 0.0058,0.0468286 0.00891429,0.0367 0.0258429,0.0709858 0.0449429,0.103529 0.0143572,0.0245857 0.0300286,0.0483858 0.0468715,0.0712858 0.0552286,0.0750001 0.123914,0.140157 0.203414,0.188872 0.0397286,0.0243286 0.0825286,0.0456572 0.126843,0.0603143 0.0496858,0.0164714 0.0939429,0.0335143 0.147629,0.0233572 0.0562,-0.0106714 0.1116,-0.0454572 0.1339,-0.0996287 0.00658572,-0.0160143 0.00987144,-0.0338572 0.00621429,-0.0507715 -0.00764286,-0.0350429 -0.0550143,-0.0558572 -0.0833715,-0.0728001z"/>
   </g>
  </g>
 </g>
</svg>
