<?xml version="1.0" encoding="UTF-8"?>
<!DOCTYPE svg PUBLIC "-//W3C//DTD SVG 1.1//EN" "http://www.w3.org/Graphics/SVG/1.1/DTD/svg11.dtd">
<!-- Creator: CorelDRAW -->
<svg xmlns="http://www.w3.org/2000/svg" xml:space="preserve" width="16.9333mm" height="16.9334mm" style="shape-rendering:geometricPrecision; text-rendering:geometricPrecision; image-rendering:optimizeQuality; fill-rule:evenodd; clip-rule:evenodd"
viewBox="0 0 16.9334 16.9335"
 xmlns:xlink="http://www.w3.org/1999/xlink">
 <defs>
  <style type="text/css">
   <![CDATA[
    .fil1 {fill:#F1582C}
    .fil2 {fill:#FEFEFE}
    .fil0 {fill:white}
   ]]>
  </style>
 </defs>
 <g id="Layer_x0020_1">
  <metadata id="CorelCorpID_0Corel-Layer"/>
  <g id="_432696920">
   <rect id="_157472560" class="fil0" y="4.98912e-005" width="16.9334" height="16.9334"/>
   <g>
    <path id="_158321912" class="fil1" d="M9.15365 7.80405c-0.280702,0.0437003 -0.428603,0.0924005 -0.606204,0.233901 -0.119001,0.0948006 -0.289202,0.312402 -0.303802,0.528603 -0.0566003,0.834305 1.33411,0.904005 1.96081,1.38181 0.403702,0.307902 0.583103,0.577903 0.581903,1.09671 -0.00110001,0.463603 -0.376002,0.807305 -0.710104,0.951706 -0.465103,0.200801 -0.958206,0.177801 -1.45571,0.0410002 -0.184601,-0.0508003 -1.14741,-0.444203 -0.833605,-0.704304 0.117601,-0.0975006 0.184801,-0.0256002 0.271802,0.0345002 0.279602,0.193501 0.535603,0.308202 0.875005,0.398602 0.619604,0.165101 1.57121,-0.0873005 1.51091,-0.895205 -0.0451003,-0.605804 -0.933506,-0.902505 -1.42591,-1.07931 -0.409202,-0.146901 -0.794005,-0.383602 -0.990706,-0.697204 -0.382302,-0.609504 0.133101,-1.77761 1.49001,-1.62801 0.291702,0.0322002 0.674004,0.174601 0.891305,0.350302 0.0929005,0.0752004 0.108801,0.210201 0.0108001,0.296202 -0.0982006,0.0863005 -0.199401,-0.00770005 -0.270202,-0.0526003 -0.0741004,-0.0470003 -0.192301,-0.117001 -0.276902,-0.145901 -0.215901,-0.0738004 -0.455103,-0.151901 -0.719404,-0.110801zm1.48611 -1.61811c-0.816005,0.0316002 -1.89681,-0.0110001 -2.76352,0.00300002 -0.0757004,0.00120001 -0.106101,0.0141001 -0.122001,-0.0379002 -0.0263002,-0.0862005 0.100601,-0.759704 0.121201,-0.837305 0.0905005,-0.339002 0.210201,-0.661504 0.391702,-0.901005 0.423202,-0.558203 1.15731,-0.741904 1.71681,-0.162501 0.220601,0.228401 0.333902,0.478503 0.461103,0.833305 0.0806005,0.224901 0.213701,0.826805 0.194701,1.10241zm-3.55132 0.00870005l-1.89281 -0.000100001c-0.444103,0 -0.540303,0.211601 -0.502303,0.634804 0.0732004,0.815205 0.132101,1.63301 0.190801,2.44841 0.00710004,0.0979006 0.000100001,0.198801 0.0132001,0.293602l0.198801 2.75152c-0.00720004,0.600104 0.511903,1.15671 1.15631,1.22381l5.97804 0c0.700804,0.000100001 1.02531,-0.553703 1.09331,-1.20471l0.371502 -5.40073c0.00240001,-0.163101 0.0515003,-0.381602 -0.0222001,-0.524703 -0.0206001,-0.0401002 -0.0989006,-0.130701 -0.132301,-0.154501l-0.253501 -0.0581003c-0.145801,-0.0165001 -2.05861,0.0131001 -2.09861,-0.00320002l-0.0327002 -0.0294002c-0.0103001,-0.339802 0.00200001,-0.219801 -0.0405002,-0.554903 -0.0190001,-0.150501 -0.0711004,-0.347902 -0.113001,-0.488203 -0.255802,-0.857005 -0.797305,-1.80131 -1.89541,-1.73851 -1.04591,0.0598004 -1.56491,1.00171 -1.75021,1.86811 -0.0387002,0.181301 -0.112001,0.589203 -0.114801,0.784305 -0.00240001,0.169801 0.0171001,0.152501 -0.153601,0.152501z"/>
    <path id="_158322392" class="fil2" d="M9.15365 7.80405c0.264302,-0.0411002 0.503503,0.0370002 0.719404,0.110801 0.0846005,0.0289002 0.202801,0.0989006 0.276902,0.145901 0.0708004,0.0449003 0.172001,0.138901 0.270202,0.0526003 0.0980006,-0.0860005 0.0821005,-0.221001 -0.0108001,-0.296202 -0.217301,-0.175701 -0.599604,-0.318102 -0.891305,-0.350302 -1.35691,-0.149601 -1.87231,1.01851 -1.49001,1.62801 0.196701,0.313602 0.581503,0.550303 0.990706,0.697204 0.492403,0.176801 1.38081,0.473503 1.42591,1.07931 0.0603004,0.807905 -0.891305,1.06031 -1.51091,0.895205 -0.339402,-0.0904005 -0.595404,-0.205101 -0.875005,-0.398602 -0.0870005,-0.0601004 -0.154201,-0.132001 -0.271802,-0.0345002 -0.313802,0.260102 0.649004,0.653504 0.833605,0.704304 0.497503,0.136801 0.990606,0.159801 1.45571,-0.0410002 0.334102,-0.144401 0.709004,-0.488103 0.710104,-0.951706 0.00120001,-0.518803 -0.178201,-0.788805 -0.581903,-1.09671 -0.626704,-0.477803 -2.01741,-0.547503 -1.96081,-1.38181 0.0146001,-0.216201 0.184801,-0.433803 0.303802,-0.528603 0.177601,-0.141501 0.325502,-0.190201 0.606204,-0.233901z"/>
   </g>
  </g>
 </g>
</svg>
