<?xml version="1.0" encoding="UTF-8"?>
<!DOCTYPE svg PUBLIC "-//W3C//DTD SVG 1.1//EN" "http://www.w3.org/Graphics/SVG/1.1/DTD/svg11.dtd">
<!-- Creator: CorelDRAW -->
<svg xmlns="http://www.w3.org/2000/svg" xml:space="preserve" width="16.9333mm" height="16.9334mm" style="shape-rendering:geometricPrecision; text-rendering:geometricPrecision; image-rendering:optimizeQuality; fill-rule:evenodd; clip-rule:evenodd"
viewBox="0 0 3.38666 3.38668"
 xmlns:xlink="http://www.w3.org/1999/xlink">
 <defs>
  <style type="text/css">
   <![CDATA[
    .fil2 {fill:#1E1A1E}
    .fil3 {fill:#21B6BF}
    .fil1 {fill:#E74059}
    .fil0 {fill:white}
   ]]>
  </style>
 </defs>
 <g id="Layer_x0020_1">
  <metadata id="CorelCorpID_0Corel-Layer"/>
  <g id="_432681560">
   <rect id="_435069592" class="fil0" width="3.38666" height="3.38666"/>
   <g>
    <path id="_157473736" class="fil1" d="M1.28362 2.2621c-0.03742,-0.0490601 -0.0576601,-0.1091 -0.0576001,-0.17092 2e-005,-0.1558 0.12646,-0.28226 0.28248,-0.28226 0.02906,0 0.0579201,0.00442001 0.0856601,0.01324l0 -0.34134c-0.03238,-0.00442001 -0.0650401,-0.00628001 -0.0977401,-0.00558001l0 0.26564c-0.02772,-0.00880001 -0.0566201,-0.01324 -0.0857001,-0.01324 -0.15604,0 -0.28248,0.1264 -0.28248,0.28234 0,0.11026 0.0632201,0.2057 0.15538,0.25212zm0.963901 -1.18808c-0.0670601,-0.0731801 -0.11108,-0.16786 -0.1206,-0.27248l0 -0.0429401 -0.0926401 0c0.02334,0.13296 0.10288,0.24656 0.21324,0.31542l0 0zm-0.1206 0.33684c0.1312,0.0937601 0.29194,0.14894 0.465541,0.14894l2e-005 -0.33396c-0.03288,6.00001e-005 -0.0656401,-0.0034 -0.0978001,-0.01016l0 0.2628c-0.17354,0 -0.33428,-0.0552001 -0.465501,-0.14888l0 0.681361c0,0.34078 -0.27646,0.617101 -0.617481,0.617101 -0.12722,0 -0.24552,-0.0384 -0.34374,-0.10436 0.11212,0.11452 0.26848,0.18562 0.441481,0.18562 0.34108,0 0.617481,-0.2763 0.617481,-0.617081l0 -0.681381z"/>
    <path id="_157473352" class="fil2" d="M2.02918 1.3296c0.13122,0.0936801 0.29196,0.14888 0.465501,0.14888l0 -0.2628c-0.0969201,-0.02062 -0.18268,-0.0712801 -0.24716,-0.14166 -0.11036,-0.0688601 -0.1899,-0.18246 -0.21324,-0.31542l-0.24334 0 0 1.33358c-0.000600001,0.15548 -0.12682,0.28134 -0.28248,0.28134 -0.0917201,0 -0.17322,-0.0436401 -0.22484,-0.11142 -0.0921601,-0.0464201 -0.15538,-0.14186 -0.15538,-0.25212 0,-0.15594 0.12644,-0.28234 0.28248,-0.28234 0.02986,0 0.0586801,0.00466001 0.0857001,0.01324l0 -0.26564c-0.33504,0.00690001 -0.604461,0.28052 -0.604461,0.617001 0,0.1679 0.0671001,0.32016 0.176,0.431461 0.0982201,0.0659601 0.21652,0.10442 0.34374,0.10442 0.34102,0 0.617481,-0.27638 0.617481,-0.617161l0 -0.681361z"/>
    <path id="_157472752" class="fil3" d="M1.49642 1.47524l0 -0.0757001c-0.02806,-0.00382 -0.0563801,-0.00580001 -0.0847201,-0.00574001 -0.341,0 -0.617481,0.2763 -0.617481,0.617161 0,0.21364 0.10862,0.40194 0.27374,0.512741 -0.1089,-0.1113 -0.17596,-0.26356 -0.17596,-0.431521 0,-0.33642 0.26938,-0.610041 0.604421,-0.616941l0 0zm0.537861 -0.716641c-0.00226,-0.01268 -0.00394,-0.02548 -0.00510001,-0.03828l0 -0.0429801 -0.33602 0 0 1.33362c-0.000560001,0.15538 -0.12678,0.28128 -0.28244,0.28128 -0.0457201,0 -0.0888801,-0.01082 -0.1271,-0.03014 0.0516401,0.0677801 0.13312,0.11142 0.22484,0.11142 0.15566,0 0.28188,-0.12584 0.28248,-0.28134l0 -1.33358 0.24334 0zm0.460401 0.457081l0 -0.0711001c-0.0873401,0.00014 -0.17306,-0.02434 -0.24716,-0.0705601 0.0656201,0.0717401 0.15204,0.12136 0.24716,0.14166z"/>
   </g>
  </g>
 </g>
</svg>
